<svg width="26" height="22" viewBox="0 0 26 22" fill="none" xmlns="http://www.w3.org/2000/svg">
<path fill-rule="evenodd" clip-rule="evenodd" d="M3.86066 2.49365C3.86066 1.38908 4.75609 0.493652 5.86066 0.493652H19.8353C20.9399 0.493652 21.8353 1.38908 21.8353 2.49365C21.8353 3.59822 20.9399 4.49365 19.8353 4.49365H5.86066C4.75609 4.49365 3.86066 3.59822 3.86066 2.49365ZM3.86066 19.5063C3.86066 18.4017 4.75609 17.5063 5.86066 17.5063H19.8353C20.9399 17.5063 21.8353 18.4017 21.8353 19.5063C21.8353 20.6109 20.9399 21.5063 19.8353 21.5063H5.86066C4.75609 21.5063 3.86066 20.6109 3.86066 19.5063ZM2.21509 8.99998C1.11052 8.99998 0.215088 9.89541 0.215088 11C0.215088 12.1046 1.11052 13 2.21509 13H23.7847C24.8893 13 25.7847 12.1046 25.7847 11C25.7847 9.89541 24.8893 8.99998 23.7847 8.99998H2.21509Z" fill="#BF0603"/>
</svg>
