<svg width="56" height="36" viewBox="0 0 56 36" fill="none" xmlns="http://www.w3.org/2000/svg">
<path d="M24.3801 34.3591L1.30076 7.97863C-1.42295 4.87476 0.790663 1.76948e-06 4.92435 1.76948e-06H51.083C52.0081 -0.000791412 52.9139 0.265094 53.6918 0.765819C54.4697 1.26654 55.0867 1.98088 55.4691 2.82329C55.8514 3.66569 55.9829 4.60046 55.8476 5.51564C55.7124 6.43082 55.3163 7.28763 54.7066 7.98345L31.6273 34.3543C31.1756 34.8712 30.6186 35.2855 29.9936 35.5693C29.3686 35.8531 28.6901 36 28.0037 36C27.3173 36 26.6388 35.8531 26.0138 35.5693C25.3888 35.2855 24.8318 34.8712 24.3801 34.3543V34.3591Z" fill="#BF0603"/>
</svg>
