<svg width="36" height="56" viewBox="0 0 36 56" fill="none" xmlns="http://www.w3.org/2000/svg">
<path d="M34.3591 31.6198L7.97863 54.6992C4.86995 57.4229 1.76947e-06 55.2093 1.76947e-06 51.0756V4.91692C-0.000791412 3.9918 0.265094 3.08606 0.765819 2.30817C1.26654 1.53027 1.98088 0.913197 2.82329 0.530839C3.66569 0.148481 4.60046 0.0170481 5.51564 0.15228C6.43082 0.287511 7.28763 0.683675 7.98345 1.29333L34.3543 24.3727C34.8712 24.8243 35.2855 25.3814 35.5693 26.0064C35.8531 26.6313 36 27.3098 36 27.9962C36 28.6827 35.8531 29.3611 35.5693 29.9861C35.2855 30.6111 34.8712 31.1682 34.3543 31.6198H34.3591Z" fill="#BF0603"/>
</svg>
